# xmcd CD database file
#
# Track frame offsets:
#	150
#	21608
#	39618
#	58695
#	77473
#	96623
#	114638
#	133813
#	149233
#	168313
#
# Disc length: 2604 seconds
#
# Revision: 0
# Processed by: cddbd v1.5PL3 Copyright (c) Steve Scherf et al.
# Submitted via: CDex 1.51
#
DISCID=980a2a0a
DTITLE=仁藤優子 - サマー・ストリーム
DYEAR=1987
DGENRE=Pop
TTITLE0=風の下で眠るイヴたち
TTITLE1=Questionは嫌い
TTITLE2=星屑のティアラ
TTITLE3=NO,NO,NO,NO,YES
TTITLE4=約束はいらない
TTITLE5=おこりんぼの人魚
TTITLE6=星のフィナーレ
TTITLE7=黄昏のクレセント
TTITLE8=泣きたくてsmile for you
TTITLE9=宇宙の風
EXTD=YEAR: 1987
EXTT0=
EXTT1=
EXTT2=
EXTT3=
EXTT4=
EXTT5=
EXTT6=
EXTT7=
EXTT8=
EXTT9=
PLAYORDER=
